<svg width="60" height="61" viewBox="0 0 60 61" fill="none" xmlns="http://www.w3.org/2000/svg">
<g clip-path="url(#clip0_1_396)">
<path d="M53.6571 34.5312C53.3357 37.2527 50.2714 38.3027 46.3286 38.3027C42.4071 38.3027 39.0643 37.2741 38.7214 34.5527C37.0071 35.3241 35.55 36.417 34.5214 37.7884C40.1143 39.267 44.8714 42.0312 48.1714 45.5884C54.9857 45.6741 59.55 46.2955 59.8929 43.4027C60.3643 39.3955 57.6643 36.2455 53.6571 34.5312Z" fill="#F78A52"/>
<path d="M53.0786 39.5241C55.4786 39.5241 57.7071 42.1384 59.7643 40.917C59.1214 38.0884 56.7857 35.8813 53.6571 34.5312C53.3357 37.2527 50.2714 38.3027 46.3286 38.3027C42.4071 38.3027 39.0643 37.2741 38.7214 34.5527C37.0071 35.3241 35.55 36.417 34.5214 37.7884C37.8643 38.667 40.9071 40.017 43.5214 41.7098C43.9071 41.967 44.4 41.967 44.7857 41.7312C47.1214 40.3598 49.9929 39.5241 53.0786 39.5241Z" fill="#E86F2D"/>
<path d="M39.6643 35.1313C39.2357 33.8242 42.6214 32.667 43.35 30.0313L48.8357 29.8599C50.0143 33.567 53.1 33.8241 52.6286 35.1741C51.6 38.0456 40.5857 37.9384 39.6643 35.1313Z" fill="#F6C3B4"/>
<path d="M40.2 35.1313C38.4214 34.2956 41.7 33.6527 43.35 30.0313L48.8357 29.8599C50.2929 33.3956 48.1286 35.0456 45.4071 34.2742C42.8571 33.567 41.9786 35.967 40.2 35.1313Z" fill="#F19D9B"/>
<path d="M52.9286 19.1026C53.4214 21.1383 52.6071 22.3597 51.3 22.3597C49.9929 22.3597 48.9429 20.8812 48.9429 19.0383C48.9429 17.1955 50.9143 15.074 52.2214 15.074C53.5286 15.074 51.5786 13.5955 52.9286 19.1026Z" fill="#041844"/>
<path d="M42.6214 32.9883C43.3071 32.1097 43.7571 30.6097 43.7571 28.874C43.7571 26.174 40.9286 22.874 39.5571 22.874C39.3857 22.874 39.2571 22.9169 39.15 23.024C39.1714 22.2097 39.1714 21.2026 39.1286 20.0026C38.9571 16.274 38.4214 13.4455 37.6071 13.2312C36.6643 12.9955 36.1714 17.1954 37.2214 21.1169C37.65 22.7454 37.6071 24.0526 37.5 25.0169C37.35 25.7026 37.0286 26.3669 36.4714 27.2455C35.5286 28.4669 34.4571 28.574 34.4571 30.0312C34.4571 30.824 34.7786 31.5097 35.2286 31.9597C35.0786 32.1955 34.9071 32.3883 34.6929 32.5169C33.2571 33.3526 34.7357 35.2169 35.9786 35.2169C36.3 35.2169 36.6857 35.1097 37.05 34.9169C37.65 35.3669 38.6357 35.6455 39.75 35.6455C41.5929 35.6455 43.0714 34.8526 43.0714 33.8883C43.05 33.5455 42.9 33.2455 42.6214 32.9883Z" fill="#041844"/>
<path d="M51.3857 18.2026C52.2857 23.174 49.8429 31.1455 46.7571 31.6812C43.6714 32.2383 39.2143 26.6455 38.3143 21.6955C37.4143 16.724 40.4571 14.2597 43.5429 13.7026C46.6286 13.1455 50.5071 13.2312 51.3857 18.2026Z" fill="#F6C3B4"/>
<path d="M37.3071 20.3241C38.1643 22.7669 38.3143 20.5384 42.0214 18.5884C43.9714 17.5812 42.6857 15.5455 45.9857 13.1455C47.55 11.9884 43.3714 10.7026 41.1857 10.7026C38.9786 10.7026 36.6643 18.4812 37.3071 20.3241Z" fill="#041844"/>
<path d="M52.7357 14.3241C52.7357 12.7384 51.0214 11.2169 49.2429 10.4669C49.1143 10.4027 48.9857 10.3384 48.8571 10.3169C48.3429 10.1241 47.8286 10.0169 47.3571 9.97408C45.7071 9.86694 44.8928 10.0812 44.55 10.5098C44.0786 10.3169 43.35 10.2312 42.2143 10.3169C40.05 10.4669 36.8357 12.5027 36.8357 14.6669C36.8357 16.8312 36.4929 20.6241 38.6786 20.6241C40.65 20.6241 44.0143 17.4955 44.6143 15.3098C45.3857 15.9741 46.5429 15.9741 47.5286 16.8527C49.6714 18.8027 52.65 20.3455 52.65 18.3955C52.65 17.9241 52.5429 17.1955 52.35 16.3812C52.5643 15.6955 52.7357 14.9669 52.7357 14.3241Z" fill="#041844"/>
<path d="M12.6214 42.5025C11.8286 40.1239 17.9786 38.0239 19.3071 33.2453L29.25 32.9453C31.4143 39.6739 36.9857 40.1453 36.1286 42.5882C34.3071 47.7739 14.2929 47.6025 12.6214 42.5025Z" fill="#F6C3B4"/>
<path d="M13.6071 42.481C10.3929 40.9596 16.3286 39.8025 19.3286 33.2453L29.2714 32.9453C31.9071 39.3525 27.9643 42.3525 23.0571 40.981C18.4071 39.6739 16.8429 44.0025 13.6071 42.481Z" fill="#F19D9B"/>
<path d="M33.75 12.7384C35.3143 21.417 31.05 35.3455 25.6714 36.3098C20.2929 37.2741 12.4714 27.5241 10.9071 18.8455C9.36429 10.167 14.6571 5.85983 20.0357 4.89554C25.4143 3.93126 32.2071 4.05983 33.75 12.7384Z" fill="#F6C3B4"/>
<path d="M38.6571 5.25982C38.0571 0.00981575 30.9214 -0.418756 27 2.70982C25.35 2.13124 23.5714 1.80982 21.8143 1.80982C15.4714 1.80982 9.83571 6.33124 10.3286 11.8812C11.1 20.7312 10.7786 5.58124 20.4857 11.1741C25.1571 13.8527 31.3929 16.0384 33.8786 14.1741C36.5357 12.717 38.8714 7.23124 38.6571 5.25982Z" fill="#E86F2D"/>
<path d="M38.0571 41.7954C37.4786 46.424 31.9071 48.1811 24.7714 48.1811C17.6786 48.1811 11.5714 46.4454 10.95 41.8383C4.39286 44.6026 0.0642853 49.6383 0.0642853 56.8597C0.0642853 61.5954 12.2357 60.524 25.8429 60.524C39.45 60.524 48.6857 62.024 49.35 56.8597C50.2286 50.0454 45.3214 44.7097 38.0571 41.7954Z" fill="#5BA1F4"/>
<path d="M0.835714 58.5955C13.35 52.8526 27.9214 48.5669 43.6714 52.9383C46.35 53.6883 48.8571 51.674 47.4429 48.824C45.45 45.824 42.1286 43.4455 38.0571 41.8169C37.4786 46.4455 31.9071 48.2026 24.7714 48.2026C17.6786 48.2026 11.5714 46.4669 10.95 41.8598C4.39286 44.624 0.0642853 49.6598 0.0642853 56.8812C0.0857139 57.5669 0.342857 58.124 0.835714 58.5955Z" fill="#3582EB"/>
</g>
<defs>
<clipPath id="clip0_1_396">
<rect width="60" height="60" fill="white" transform="translate(0 0.609863)"/>
</clipPath>
</defs>
</svg>
