<svg width="60" height="61" viewBox="0 0 60 61" fill="none" xmlns="http://www.w3.org/2000/svg">
<g clip-path="url(#clip0_1_428)">
<path d="M30 0.609863C13.4357 0.609863 0 14.0456 0 30.6099C0 47.1741 13.4357 60.6099 30 60.6099C46.5643 60.6099 60 47.1741 60 30.6099C60 14.0456 46.5643 0.609863 30 0.609863ZM30 47.7527C20.5286 47.7527 12.8571 40.0813 12.8571 30.6099C12.8571 21.1384 20.5286 13.467 30 13.467C39.4714 13.467 47.1429 21.1384 47.1429 30.6099C47.1429 40.0813 39.4714 47.7527 30 47.7527Z" fill="#5BA1F4"/>
<path d="M30 0.609863C13.4357 0.609863 0 14.0456 0 30.6099C0 47.1741 13.4357 60.6099 30 60.6099C46.5643 60.6099 60 47.1741 60 30.6099C60 14.0456 46.5643 0.609863 30 0.609863ZM30 54.1813C16.9714 54.1813 6.42857 43.6384 6.42857 30.6099C6.42857 17.5813 16.9714 7.03843 30 7.03843C43.0286 7.03843 53.5714 17.5813 53.5714 30.6099C53.5714 43.6384 43.0286 54.1813 30 54.1813Z" fill="#3582EB"/>
<path d="M32.4857 35.2814H26.5714V34.6814C26.5714 33.6743 26.6786 32.86 26.9143 32.2386C27.15 31.6172 27.4714 31.0386 27.9214 30.5243C28.3714 30.01 29.3786 29.0886 30.9643 27.7814C31.8 27.0957 32.2286 26.4743 32.2286 25.8957C32.2286 25.3172 32.0571 24.8886 31.7143 24.5672C31.3714 24.2457 30.8571 24.0957 30.1928 24.0957C29.4643 24.0957 28.8428 24.3314 28.3714 24.8243C27.9 25.3172 27.5786 26.1529 27.45 27.3743L21.4286 26.6243C21.6428 24.4172 22.4357 22.6172 23.85 21.2672C25.2428 19.9172 27.4071 19.2314 30.3 19.2314C32.55 19.2314 34.3714 19.7029 35.7643 20.6457C37.65 21.91 38.5928 23.6243 38.5928 25.7457C38.5928 26.6243 38.3571 27.4814 37.8643 28.2957C37.3714 29.11 36.3857 30.1172 34.8857 31.2957C33.8357 32.1314 33.1714 32.7957 32.9143 33.2886C32.6143 33.8243 32.4857 34.4886 32.4857 35.2814Z" fill="#E86F2D"/>
<path d="M29.6572 43.0384C31.4324 43.0384 32.8714 41.5993 32.8714 39.8241C32.8714 38.0489 31.4324 36.6099 29.6572 36.6099C27.882 36.6099 26.4429 38.0489 26.4429 39.8241C26.4429 41.5993 27.882 43.0384 29.6572 43.0384Z" fill="#E86F2D"/>
</g>
<defs>
<clipPath id="clip0_1_428">
<rect width="60" height="60" fill="white" transform="translate(0 0.609863)"/>
</clipPath>
</defs>
</svg>
