<svg width="60" height="61" viewBox="0 0 60 61" fill="none" xmlns="http://www.w3.org/2000/svg">
<g clip-path="url(#clip0_1_375)">
<path d="M30 0.609863C13.4357 0.609863 0 14.0456 0 30.6099C0 47.1741 13.4357 60.6099 30 60.6099C46.5643 60.6099 60 47.1741 60 30.6099C60 14.0456 46.5643 0.609863 30 0.609863ZM30 47.7527C20.5286 47.7527 12.8571 40.0813 12.8571 30.6099C12.8571 21.1384 20.5286 13.467 30 13.467C39.4714 13.467 47.1429 21.1384 47.1429 30.6099C47.1429 40.0813 39.4714 47.7527 30 47.7527Z" fill="#5BA1F4"/>
<path d="M30 0.609863C13.4357 0.609863 0 14.0456 0 30.6099C0 47.1741 13.4357 60.6099 30 60.6099C46.5643 60.6099 60 47.1741 60 30.6099C60 14.0456 46.5643 0.609863 30 0.609863ZM30 54.1813C16.9714 54.1813 6.42857 43.6384 6.42857 30.6099C6.42857 17.5813 16.9714 7.03843 30 7.03843C43.0286 7.03843 53.5714 17.5813 53.5714 30.6099C53.5714 43.6384 43.0286 54.1813 30 54.1813Z" fill="#3582EB"/>
<path d="M39.7929 2.23843C36.7286 1.18843 33.4286 0.609863 30 0.609863C26.5714 0.609863 23.2714 1.18843 20.2072 2.23843L24.6214 14.3241C26.2929 13.767 28.0714 13.467 29.9143 13.467C29.9572 13.467 29.9786 13.467 30.0214 13.467C30.0643 13.467 30.0857 13.467 30.1286 13.467C31.9714 13.4884 33.75 13.7884 35.4214 14.3241L39.7929 2.23843Z" fill="#F9E298"/>
<path d="M30 7.03843C32.6572 7.03843 35.2072 7.48843 37.6072 8.28129L39.8143 2.23843C36.7286 1.18843 33.4286 0.609863 30 0.609863C26.5714 0.609863 23.2714 1.18843 20.2072 2.23843L22.4143 8.28129C24.7929 7.48843 27.3429 7.03843 30 7.03843Z" fill="#F9D750"/>
<path d="M58.5643 21.4385C59.55 24.5242 60.0643 27.8456 60 31.2742C59.9357 34.7028 59.2714 37.9813 58.1571 41.0242L46.1571 36.3528C46.7357 34.7028 47.0786 32.9242 47.1429 31.0813C47.1429 31.0385 47.1429 31.017 47.1429 30.9742C47.1429 30.9313 47.1429 30.9099 47.1429 30.867C47.1643 29.0242 46.9071 27.2456 46.3929 25.5528L58.5643 21.4385Z" fill="#F78A52"/>
<path d="M58.5643 21.4385L52.4786 23.517C53.1857 25.767 53.5714 28.1456 53.5714 30.6099C53.5714 33.4599 53.0786 36.1813 52.1571 38.6885L58.1571 41.0242C59.2928 37.9813 59.9357 34.7028 60 31.2742C60.0643 27.8456 59.5714 24.5242 58.5643 21.4385Z" fill="#E86F2D"/>
<path d="M39.7929 58.9812C36.7286 60.0312 33.4286 60.6098 30 60.6098C26.5714 60.6098 23.2714 60.0312 20.2072 58.9812L24.6214 46.8955C26.2929 47.4527 28.0714 47.7527 29.9143 47.7527C29.9572 47.7527 29.9786 47.7527 30.0214 47.7527C30.0643 47.7527 30.0857 47.7527 30.1286 47.7527C31.9714 47.7312 33.75 47.4312 35.4214 46.8955L39.7929 58.9812Z" fill="#F9E298"/>
<path d="M30 54.1813C27.3428 54.1813 24.7928 53.7313 22.3928 52.9385L20.1857 58.9813C23.25 60.0313 26.55 60.6099 29.9786 60.6099C33.4071 60.6099 36.7071 60.0313 39.7714 58.9813L37.5643 52.9385C35.2071 53.7313 32.6571 54.1813 30 54.1813Z" fill="#F9D750"/>
<path d="M1.43572 21.4385C0.450005 24.5242 -0.0642812 27.8456 4.56441e-06 31.2742C0.0642903 34.7028 0.728576 37.9813 1.84286 41.0242L13.8429 36.3528C13.2643 34.7028 12.9214 32.9242 12.8571 31.0813C12.8571 31.0385 12.8571 31.017 12.8571 30.9742C12.8571 30.9313 12.8571 30.9099 12.8571 30.867C12.8357 29.0242 13.0929 27.2456 13.6071 25.5528L1.43572 21.4385Z" fill="#F78A52"/>
<path d="M6.42858 30.6099C6.42858 28.1456 6.81429 25.7456 7.52143 23.517L1.43572 21.4385C0.450005 24.5242 -0.0642812 27.8456 4.56441e-06 31.2742C0.0642903 34.7028 0.728576 37.9813 1.84286 41.0242L7.84286 38.6885C6.92143 36.1813 6.42858 33.4599 6.42858 30.6099Z" fill="#E86F2D"/>
<path d="M30 41.1099C35.799 41.1099 40.5 36.4089 40.5 30.6099C40.5 24.8109 35.799 20.1099 30 20.1099C24.201 20.1099 19.5 24.8109 19.5 30.6099C19.5 36.4089 24.201 41.1099 30 41.1099Z" fill="#E86F2D"/>
</g>
<defs>
<clipPath id="clip0_1_375">
<rect width="60" height="60" fill="white" transform="translate(0 0.609863)"/>
</clipPath>
</defs>
</svg>
