<svg width="28" height="29" viewBox="0 0 28 29" fill="none" xmlns="http://www.w3.org/2000/svg">
<path d="M27 13.0002V16.0002C27 16.1461 26.9531 16.2659 26.8594 16.3596C26.7656 16.4534 26.6458 16.5002 26.5 16.5002H7V20.0002C7 20.219 6.90104 20.37 6.70312 20.4534C6.50521 20.5367 6.32292 20.5106 6.15625 20.3752L0.15625 14.9065C0.0520833 14.8023 0 14.6825 0 14.5471C0 14.4013 0.0520833 14.2763 0.15625 14.1721L6.15625 8.64086C6.32292 8.49502 6.50521 8.46377 6.70312 8.54711C6.90104 8.64086 7 8.7919 7 9.00023V12.5002H26.5C26.6458 12.5002 26.7656 12.5471 26.8594 12.6409C26.9531 12.7346 27 12.8544 27 13.0002Z" fill="#D7DEEE"/>
</svg>
