<svg width="27" height="13" viewBox="0 0 27 13" fill="none" xmlns="http://www.w3.org/2000/svg">
<path d="M27 6.45308C27 6.59891 26.9479 6.72391 26.8438 6.82808L20.8438 12.3593C20.6771 12.5052 20.4948 12.5364 20.2969 12.4531C20.099 12.3593 20 12.2083 20 12V8.49996H0.5C0.354167 8.49996 0.234375 8.45308 0.140625 8.35933C0.046875 8.26558 0 8.14579 0 7.99996V4.99996C0 4.85412 0.046875 4.73433 0.140625 4.64058C0.234375 4.54683 0.354167 4.49996 0.5 4.49996H20V0.999955C20 0.781205 20.099 0.630163 20.2969 0.54683C20.4948 0.463497 20.6771 0.489538 20.8438 0.624955L26.8438 6.09371C26.9479 6.19787 27 6.31766 27 6.45308Z" fill="#D7DEEE"/>
</svg>
